<?xml version="1.0" encoding="UTF-8" standalone="no"?>
<!DOCTYPE svg PUBLIC "-//W3C//DTD SVG 1.1//EN"
 "http://www.w3.org/Graphics/SVG/1.1/DTD/svg11.dtd">
<!-- Generated by graphviz version 2.43.0 (0)
 -->
<!-- Title: comic_pipeline Pages: 1 -->
<svg width="1001pt" height="1604pt"
 viewBox="0.00 0.00 1001.00 1604.44" xmlns="http://www.w3.org/2000/svg" xmlns:xlink="http://www.w3.org/1999/xlink">
<g id="graph0" class="graph" transform="scale(1 1) rotate(0) translate(4 1600.44)">
<title>comic_pipeline</title>
<text text-anchor="start" x="419.5" y="-1582.24" font-family="Helvetica Neue,Helvetica,Arial,sans-serif" font-weight="bold" font-size="14.00">session&#45;to&#45;comic v9.0.0</text>
<text text-anchor="start" x="387" y="-1568.24" font-family="Helvetica Neue,Helvetica,Arial,sans-serif" font-size="14.00"> &#160;&#160;&#160;&#160;&#160;&#160;&#160;&#160;</text>
<text text-anchor="start" x="421" y="-1568.24" font-family="Helvetica Neue,Helvetica,Arial,sans-serif" font-size="9.00" fill="#777777">Thin orchestrator · 3 composable sub&#45;recipes</text>
<g id="clust1" class="cluster">
<title>cluster_saga_plan</title>
<path fill="#f5f7fa" stroke="#5c9bd5" stroke-width="1.5" d="M106,-654.4C106,-654.4 327,-654.4 327,-654.4 333,-654.4 339,-660.4 339,-666.4 339,-666.4 339,-1421.2 339,-1421.2 339,-1427.2 333,-1433.2 327,-1433.2 327,-1433.2 106,-1433.2 106,-1433.2 100,-1433.2 94,-1427.2 94,-1421.2 94,-1421.2 94,-666.4 94,-666.4 94,-660.4 100,-654.4 106,-654.4"/>
<text text-anchor="start" x="153.5" y="-1422.2" font-family="Helvetica Neue,Helvetica,Arial,sans-serif" font-weight="bold" font-size="10.00">saga&#45;plan.yaml</text>
<text text-anchor="start" x="224.5" y="-1422.2" font-family="Helvetica Neue,Helvetica,Arial,sans-serif" font-size="10.00"> &#160;</text>
<text text-anchor="start" x="231.5" y="-1422.2" font-family="Helvetica Neue,Helvetica,Arial,sans-serif" font-size="9.00" fill="#666666">type: recipe</text>
<text text-anchor="start" x="121" y="-1412.2" font-family="Helvetica Neue,Helvetica,Arial,sans-serif" font-size="10.00"> &#160;&#160;&#160;&#160;&#160;&#160;&#160;&#160;&#160;&#160;</text>
<text text-anchor="start" x="155" y="-1412.2" font-family="Helvetica Neue,Helvetica,Arial,sans-serif" font-size="8.00" fill="#999999">Saga Planning · staged · text&#45;only · low cost</text>
</g>
<g id="clust2" class="cluster">
<title>cluster_design_chars</title>
<path fill="#f0f7ee" stroke="#4a9a3e" stroke-width="1.5" d="M113,-416.4C113,-416.4 326,-416.4 326,-416.4 332,-416.4 338,-422.4 338,-428.4 338,-428.4 338,-618.4 338,-618.4 338,-624.4 332,-630.4 326,-630.4 326,-630.4 113,-630.4 113,-630.4 107,-630.4 101,-624.4 101,-618.4 101,-618.4 101,-428.4 101,-428.4 101,-422.4 107,-416.4 113,-416.4"/>
<text text-anchor="start" x="137.5" y="-619.4" font-family="Helvetica Neue,Helvetica,Arial,sans-serif" font-weight="bold" font-size="10.00">design&#45;characters.yaml</text>
<text text-anchor="start" x="246.5" y="-619.4" font-family="Helvetica Neue,Helvetica,Arial,sans-serif" font-size="10.00"> &#160;</text>
<text text-anchor="start" x="253.5" y="-619.4" font-family="Helvetica Neue,Helvetica,Arial,sans-serif" font-size="9.00" fill="#666666">type: recipe</text>
<text text-anchor="start" x="109" y="-609.4" font-family="Helvetica Neue,Helvetica,Arial,sans-serif" font-size="10.00"> &#160;&#160;&#160;&#160;&#160;&#160;&#160;&#160;&#160;&#160;</text>
<text text-anchor="start" x="143" y="-609.4" font-family="Helvetica Neue,Helvetica,Arial,sans-serif" font-size="8.00" fill="#999999">Character Design · flat · image gen · project&#45;scoped</text>
</g>
<g id="clust3" class="cluster">
<title>cluster_issue_art</title>
<path fill="#fdf5ed" stroke="#d9882a" stroke-width="1.5" stroke-dasharray="5,2" d="M20,-53C20,-53 272,-53 272,-53 278,-53 284,-59 284,-65 284,-65 284,-380.4 284,-380.4 284,-386.4 278,-392.4 272,-392.4 272,-392.4 20,-392.4 20,-392.4 14,-392.4 8,-386.4 8,-380.4 8,-380.4 8,-65 8,-65 8,-59 14,-53 20,-53"/>
<text text-anchor="start" x="85.5" y="-381.4" font-family="Helvetica Neue,Helvetica,Arial,sans-serif" font-weight="bold" font-size="10.00">issue&#45;art.yaml</text>
<text text-anchor="start" x="151.5" y="-381.4" font-family="Helvetica Neue,Helvetica,Arial,sans-serif" font-size="10.00"> &#160;</text>
<text text-anchor="start" x="158.5" y="-381.4" font-family="Helvetica Neue,Helvetica,Arial,sans-serif" font-size="9.00" fill="#666666">type: recipe</text>
<text text-anchor="start" x="16" y="-371.4" font-family="Helvetica Neue,Helvetica,Arial,sans-serif" font-size="10.00"> &#160;&#160;&#160;&#160;&#160;&#160;&#160;&#160;&#160;&#160;</text>
<text text-anchor="start" x="50" y="-371.4" font-family="Helvetica Neue,Helvetica,Arial,sans-serif" font-size="8.00" fill="#999999">Per&#45;Issue Art · staged · ⟳ foreach issue · image gen · high cost</text>
</g>
<g id="clust4" class="cluster">
<title>cluster_reusable</title>
<path fill="#f5f0fa" stroke="#9070c0" stroke-width="1.5" d="M574,-1450.2C574,-1450.2 973,-1450.2 973,-1450.2 979,-1450.2 985,-1456.2 985,-1462.2 985,-1462.2 985,-1536.2 985,-1536.2 985,-1542.2 979,-1548.2 973,-1548.2 973,-1548.2 574,-1548.2 574,-1548.2 568,-1548.2 562,-1542.2 562,-1536.2 562,-1536.2 562,-1462.2 562,-1462.2 562,-1456.2 568,-1450.2 574,-1450.2"/>
<text text-anchor="start" x="726.5" y="-1537.2" font-family="Helvetica Neue,Helvetica,Arial,sans-serif" font-weight="bold" font-size="10.00">Standalone Recipes</text>
<text text-anchor="start" x="671" y="-1527.2" font-family="Helvetica Neue,Helvetica,Arial,sans-serif" font-size="10.00"> &#160;&#160;&#160;&#160;&#160;&#160;&#160;&#160;&#160;&#160;</text>
<text text-anchor="start" x="705" y="-1527.2" font-family="Helvetica Neue,Helvetica,Arial,sans-serif" font-size="8.00" fill="#999999">Composable entry points · invoke independently</text>
</g>
<!-- input -->
<g id="node1" class="node">
<title>input</title>
<polygon fill="#e8f4fd" stroke="#90caf9" points="270.67,-1498.2 73,-1498.2 73,-1472.2 275,-1472.2 275,-1493.87 270.67,-1498.2"/>
<polyline fill="none" stroke="#90caf9" points="270.67,-1498.2 270.67,-1493.87 "/>
<polyline fill="none" stroke="#90caf9" points="275,-1493.87 270.67,-1493.87 "/>
<text text-anchor="start" x="158" y="-1487.2" font-family="Helvetica Neue,Helvetica,Arial,sans-serif" font-weight="bold" font-size="10.00">source</text>
<text text-anchor="start" x="95.5" y="-1478.8" font-family="Helvetica Neue,Helvetica,Arial,sans-serif" font-size="8.00" fill="#777777">project · session IDs · file paths · description</text>
</g>
<!-- sp01 -->
<g id="node2" class="node">
<title>sp01</title>
<path fill="#dce8f5" stroke="#5c9bd5" d="M207.83,-1389.2C207.83,-1389.2 140.17,-1389.2 140.17,-1389.2 135.83,-1389.2 131.5,-1384.87 131.5,-1380.53 131.5,-1380.53 131.5,-1371.87 131.5,-1371.87 131.5,-1367.53 135.83,-1363.2 140.17,-1363.2 140.17,-1363.2 207.83,-1363.2 207.83,-1363.2 212.17,-1363.2 216.5,-1367.53 216.5,-1371.87 216.5,-1371.87 216.5,-1380.53 216.5,-1380.53 216.5,-1384.87 212.17,-1389.2 207.83,-1389.2"/>
<text text-anchor="start" x="140.5" y="-1378.2" font-family="Helvetica Neue,Helvetica,Arial,sans-serif" font-weight="bold" font-size="10.00">check&#45;existing</text>
<text text-anchor="start" x="151.5" y="-1369.8" font-family="Helvetica Neue,Helvetica,Arial,sans-serif" font-size="8.00" fill="#5c9bd5">style&#45;curator</text>
</g>
<!-- input&#45;&gt;sp01 -->
<g id="edge21" class="edge">
<title>input&#45;&gt;sp01</title>
<path fill="none" stroke="#5c9bd5" stroke-width="1.3" d="M174,-1471.92C174,-1463.78 174,-1452.4 174,-1440.35"/>
<polygon fill="#5c9bd5" stroke="#5c9bd5" stroke-width="1.3" points="176.45,-1440.19 174,-1433.19 171.55,-1440.19 176.45,-1440.19"/>
</g>
<!-- sp02 -->
<g id="node3" class="node">
<title>sp02</title>
<path fill="#dce8f5" stroke="#5c9bd5" d="M199.83,-1330.2C199.83,-1330.2 148.17,-1330.2 148.17,-1330.2 143.83,-1330.2 139.5,-1325.87 139.5,-1321.53 139.5,-1321.53 139.5,-1312.87 139.5,-1312.87 139.5,-1308.53 143.83,-1304.2 148.17,-1304.2 148.17,-1304.2 199.83,-1304.2 199.83,-1304.2 204.17,-1304.2 208.5,-1308.53 208.5,-1312.87 208.5,-1312.87 208.5,-1321.53 208.5,-1321.53 208.5,-1325.87 204.17,-1330.2 199.83,-1330.2"/>
<text text-anchor="start" x="148.5" y="-1319.2" font-family="Helvetica Neue,Helvetica,Arial,sans-serif" font-weight="bold" font-size="10.00">init&#45;project</text>
<text text-anchor="start" x="151.5" y="-1310.8" font-family="Helvetica Neue,Helvetica,Arial,sans-serif" font-size="8.00" fill="#5c9bd5">style&#45;curator</text>
</g>
<!-- sp01&#45;&gt;sp02 -->
<g id="edge1" class="edge">
<title>sp01&#45;&gt;sp02</title>
<path fill="none" stroke="#5c9bd5" d="M174,-1363.11C174,-1355.63 174,-1345.86 174,-1337.34"/>
<polygon fill="#5c9bd5" stroke="#5c9bd5" points="176.45,-1337.27 174,-1330.27 171.55,-1337.27 176.45,-1337.27"/>
</g>
<!-- sp11 -->
<g id="node12" class="node">
<title>sp11</title>
<path fill="#dce8f5" stroke="#5c9bd5" d="M243.5,-779.2C243.5,-779.2 162.5,-779.2 162.5,-779.2 156.5,-779.2 150.5,-773.2 150.5,-767.2 150.5,-767.2 150.5,-755.2 150.5,-755.2 150.5,-749.2 156.5,-743.2 162.5,-743.2 162.5,-743.2 243.5,-743.2 243.5,-743.2 249.5,-743.2 255.5,-749.2 255.5,-755.2 255.5,-755.2 255.5,-767.2 255.5,-767.2 255.5,-773.2 249.5,-779.2 243.5,-779.2"/>
<text text-anchor="start" x="168.5" y="-768.2" font-family="Helvetica Neue,Helvetica,Arial,sans-serif" font-weight="bold" font-size="10.00">prepare&#45;review</text>
<text text-anchor="start" x="180.5" y="-759.8" font-family="Helvetica Neue,Helvetica,Arial,sans-serif" font-size="8.00" fill="#5c9bd5">style&#45;curator</text>
<text text-anchor="start" x="159.5" y="-750.2" font-family="Helvetica Neue,Helvetica,Arial,sans-serif" font-size="10.00"> &#160;&#160;&#160;&#160;&#160;&#160;&#160;&#160;&#160;&#160;&#160;&#160;&#160;&#160;&#160;</text>
<text text-anchor="start" x="208.5" y="-750.2" font-family="Helvetica Neue,Helvetica,Arial,sans-serif" font-size="7.00" fill="#777777">always runs</text>
</g>
<!-- sp01&#45;&gt;sp11 -->
<g id="edge12" class="edge">
<title>sp01&#45;&gt;sp11</title>
<path fill="none" stroke="#bbbbbb" stroke-dasharray="5,2" d="M190.51,-1363.11C200.66,-1354.88 213.17,-1343.15 221,-1330.2 235.12,-1306.85 234.18,-1298.22 238,-1271.2 239.62,-1259.76 239.41,-1256.67 238,-1245.2 237.1,-1237.92 234.9,-1236.47 234,-1229.2 230.74,-1202.72 231.62,-1195.52 236,-1169.2 240.5,-1142.16 242.93,-1135.28 254,-1110.2 266.31,-1082.31 268.99,-1074.21 289,-1051.2 296.47,-1042.61 304.07,-1045.46 309,-1035.2 315.93,-1020.78 317.91,-1012.49 309,-999.2 298.56,-983.64 280.44,-998.76 270,-983.2 259.41,-967.41 283.81,-829.04 275,-812.2 272.69,-807.78 253.84,-794.76 236.01,-783.12"/>
<polygon fill="#bbbbbb" stroke="#bbbbbb" points="237.24,-780.99 230.03,-779.23 234.57,-785.1 237.24,-780.99"/>
<text text-anchor="start" x="275" y="-1079.6" font-family="Helvetica Neue,Helvetica,Arial,sans-serif" font-size="7.00" fill="#aaaaaa">skip (exists)</text>
</g>
<!-- sp03 -->
<g id="node4" class="node">
<title>sp03</title>
<path fill="#dce8f5" stroke="#5c9bd5" d="M216.83,-1271.2C216.83,-1271.2 131.17,-1271.2 131.17,-1271.2 126.83,-1271.2 122.5,-1266.87 122.5,-1262.53 122.5,-1262.53 122.5,-1253.87 122.5,-1253.87 122.5,-1249.53 126.83,-1245.2 131.17,-1245.2 131.17,-1245.2 216.83,-1245.2 216.83,-1245.2 221.17,-1245.2 225.5,-1249.53 225.5,-1253.87 225.5,-1253.87 225.5,-1262.53 225.5,-1262.53 225.5,-1266.87 221.17,-1271.2 216.83,-1271.2"/>
<text text-anchor="start" x="131.5" y="-1260.2" font-family="Helvetica Neue,Helvetica,Arial,sans-serif" font-weight="bold" font-size="10.00">discover&#45;sessions</text>
<text text-anchor="start" x="144" y="-1251.8" font-family="Helvetica Neue,Helvetica,Arial,sans-serif" font-size="8.00" fill="#5c9bd5">story&#45;researcher</text>
</g>
<!-- sp02&#45;&gt;sp03 -->
<g id="edge2" class="edge">
<title>sp02&#45;&gt;sp03</title>
<path fill="none" stroke="#5c9bd5" d="M174,-1304.11C174,-1296.63 174,-1286.86 174,-1278.34"/>
<polygon fill="#5c9bd5" stroke="#5c9bd5" points="176.45,-1278.27 174,-1271.27 171.55,-1278.27 176.45,-1278.27"/>
</g>
<!-- sp04 -->
<g id="node5" class="node">
<title>sp04</title>
<path fill="#dce8f5" stroke="#5c9bd5" d="M204.33,-1212.2C204.33,-1212.2 143.67,-1212.2 143.67,-1212.2 139.33,-1212.2 135,-1207.87 135,-1203.53 135,-1203.53 135,-1194.87 135,-1194.87 135,-1190.53 139.33,-1186.2 143.67,-1186.2 143.67,-1186.2 204.33,-1186.2 204.33,-1186.2 208.67,-1186.2 213,-1190.53 213,-1194.87 213,-1194.87 213,-1203.53 213,-1203.53 213,-1207.87 208.67,-1212.2 204.33,-1212.2"/>
<text text-anchor="start" x="154" y="-1201.2" font-family="Helvetica Neue,Helvetica,Arial,sans-serif" font-weight="bold" font-size="10.00">research</text>
<text text-anchor="start" x="144" y="-1192.8" font-family="Helvetica Neue,Helvetica,Arial,sans-serif" font-size="8.00" fill="#5c9bd5">story&#45;researcher</text>
</g>
<!-- sp03&#45;&gt;sp04 -->
<g id="edge3" class="edge">
<title>sp03&#45;&gt;sp04</title>
<path fill="none" stroke="#5c9bd5" d="M174,-1245.11C174,-1237.63 174,-1227.86 174,-1219.34"/>
<polygon fill="#5c9bd5" stroke="#5c9bd5" points="176.45,-1219.27 174,-1212.27 171.55,-1219.27 176.45,-1219.27"/>
</g>
<!-- sp05 -->
<g id="node6" class="node">
<title>sp05</title>
<path fill="#dce8f5" stroke="#5c9bd5" d="M206.33,-1153.2C206.33,-1153.2 141.67,-1153.2 141.67,-1153.2 137.33,-1153.2 133,-1148.87 133,-1144.53 133,-1144.53 133,-1135.87 133,-1135.87 133,-1131.53 137.33,-1127.2 141.67,-1127.2 141.67,-1127.2 206.33,-1127.2 206.33,-1127.2 210.67,-1127.2 215,-1131.53 215,-1135.87 215,-1135.87 215,-1144.53 215,-1144.53 215,-1148.87 210.67,-1153.2 206.33,-1153.2"/>
<text text-anchor="start" x="142" y="-1142.2" font-family="Helvetica Neue,Helvetica,Arial,sans-serif" font-weight="bold" font-size="10.00">style&#45;curation</text>
<text text-anchor="start" x="151.5" y="-1133.8" font-family="Helvetica Neue,Helvetica,Arial,sans-serif" font-size="8.00" fill="#5c9bd5">style&#45;curator</text>
</g>
<!-- sp04&#45;&gt;sp05 -->
<g id="edge4" class="edge">
<title>sp04&#45;&gt;sp05</title>
<path fill="none" stroke="#5c9bd5" d="M174,-1186.11C174,-1178.63 174,-1168.86 174,-1160.34"/>
<polygon fill="#5c9bd5" stroke="#5c9bd5" points="176.45,-1160.27 174,-1153.27 171.55,-1160.27 176.45,-1160.27"/>
</g>
<!-- sp06 -->
<g id="node7" class="node">
<title>sp06</title>
<path fill="#dce8f5" stroke="#5c9bd5" d="M224.83,-1094.2C224.83,-1094.2 123.17,-1094.2 123.17,-1094.2 118.83,-1094.2 114.5,-1089.87 114.5,-1085.53 114.5,-1085.53 114.5,-1076.87 114.5,-1076.87 114.5,-1072.53 118.83,-1068.2 123.17,-1068.2 123.17,-1068.2 224.83,-1068.2 224.83,-1068.2 229.17,-1068.2 233.5,-1072.53 233.5,-1076.87 233.5,-1076.87 233.5,-1085.53 233.5,-1085.53 233.5,-1089.87 229.17,-1094.2 224.83,-1094.2"/>
<text text-anchor="start" x="123.5" y="-1083.2" font-family="Helvetica Neue,Helvetica,Arial,sans-serif" font-weight="bold" font-size="10.00">lookup&#45;existing&#45;chars</text>
<text text-anchor="start" x="151.5" y="-1074.8" font-family="Helvetica Neue,Helvetica,Arial,sans-serif" font-size="8.00" fill="#5c9bd5">style&#45;curator</text>
</g>
<!-- sp05&#45;&gt;sp06 -->
<g id="edge5" class="edge">
<title>sp05&#45;&gt;sp06</title>
<path fill="none" stroke="#5c9bd5" d="M174,-1127.11C174,-1119.63 174,-1109.86 174,-1101.34"/>
<polygon fill="#5c9bd5" stroke="#5c9bd5" points="176.45,-1101.27 174,-1094.27 171.55,-1101.27 176.45,-1101.27"/>
</g>
<!-- sp07 -->
<g id="node8" class="node">
<title>sp07</title>
<path fill="#dce8f5" stroke="#5c9bd5" d="M284.5,-1035.2C284.5,-1035.2 121.5,-1035.2 121.5,-1035.2 115.5,-1035.2 109.5,-1029.2 109.5,-1023.2 109.5,-1023.2 109.5,-1011.2 109.5,-1011.2 109.5,-1005.2 115.5,-999.2 121.5,-999.2 121.5,-999.2 284.5,-999.2 284.5,-999.2 290.5,-999.2 296.5,-1005.2 296.5,-1011.2 296.5,-1011.2 296.5,-1023.2 296.5,-1023.2 296.5,-1029.2 290.5,-1035.2 284.5,-1035.2"/>
<text text-anchor="start" x="177.5" y="-1024.2" font-family="Helvetica Neue,Helvetica,Arial,sans-serif" font-weight="bold" font-size="10.00">storyboard</text>
<text text-anchor="start" x="172" y="-1015.8" font-family="Helvetica Neue,Helvetica,Arial,sans-serif" font-size="8.00" fill="#5c9bd5">storyboard&#45;writer</text>
<text text-anchor="start" x="118.5" y="-1006.2" font-family="Helvetica Neue,Helvetica,Arial,sans-serif" font-size="10.00"> &#160;&#160;&#160;&#160;&#160;&#160;&#160;&#160;&#160;&#160;&#160;&#160;&#160;&#160;&#160;</text>
<text text-anchor="start" x="167.5" y="-1006.2" font-family="Helvetica Neue,Helvetica,Arial,sans-serif" font-size="7.00" fill="#3a8f3a">produces issues[] + character_roster[]</text>
</g>
<!-- sp06&#45;&gt;sp07 -->
<g id="edge6" class="edge">
<title>sp06&#45;&gt;sp07</title>
<path fill="none" stroke="#5c9bd5" d="M179.73,-1067.95C183.2,-1060.53 187.75,-1050.8 191.9,-1041.92"/>
<polygon fill="#5c9bd5" stroke="#5c9bd5" points="194.23,-1042.73 194.98,-1035.35 189.79,-1040.65 194.23,-1042.73"/>
</g>
<!-- sp08 -->
<g id="node9" class="node">
<title>sp08</title>
<path fill="#dce8f5" stroke="#5c9bd5" d="M241.83,-966.2C241.83,-966.2 164.17,-966.2 164.17,-966.2 159.83,-966.2 155.5,-961.87 155.5,-957.53 155.5,-957.53 155.5,-948.87 155.5,-948.87 155.5,-944.53 159.83,-940.2 164.17,-940.2 164.17,-940.2 241.83,-940.2 241.83,-940.2 246.17,-940.2 250.5,-944.53 250.5,-948.87 250.5,-948.87 250.5,-957.53 250.5,-957.53 250.5,-961.87 246.17,-966.2 241.83,-966.2"/>
<text text-anchor="start" x="164.5" y="-955.2" font-family="Helvetica Neue,Helvetica,Arial,sans-serif" font-weight="bold" font-size="10.00">store&#45;storyboard</text>
<text text-anchor="start" x="180.5" y="-946.8" font-family="Helvetica Neue,Helvetica,Arial,sans-serif" font-size="8.00" fill="#5c9bd5">style&#45;curator</text>
</g>
<!-- sp07&#45;&gt;sp08 -->
<g id="edge7" class="edge">
<title>sp07&#45;&gt;sp08</title>
<path fill="none" stroke="#5c9bd5" d="M203,-998.93C203,-991.03 203,-981.64 203,-973.5"/>
<polygon fill="#5c9bd5" stroke="#5c9bd5" points="205.45,-973.47 203,-966.47 200.55,-973.47 205.45,-973.47"/>
</g>
<!-- sp09 -->
<g id="node10" class="node">
<title>sp09</title>
<path fill="#fce4e4" stroke="#c04040" d="M248.33,-907.2C248.33,-907.2 157.67,-907.2 157.67,-907.2 153.33,-907.2 149,-902.87 149,-898.53 149,-898.53 149,-889.87 149,-889.87 149,-885.53 153.33,-881.2 157.67,-881.2 157.67,-881.2 248.33,-881.2 248.33,-881.2 252.67,-881.2 257,-885.53 257,-889.87 257,-889.87 257,-898.53 257,-898.53 257,-902.87 252.67,-907.2 248.33,-907.2"/>
<text text-anchor="start" x="158" y="-896.2" font-family="Helvetica Neue,Helvetica,Arial,sans-serif" font-weight="bold" font-size="10.00">validate&#45;storyboard</text>
<text text-anchor="start" x="159" y="-887.8" font-family="Helvetica Neue,Helvetica,Arial,sans-serif" font-size="8.00" fill="#c04040">style&#45;curator · layout IDs</text>
</g>
<!-- sp08&#45;&gt;sp09 -->
<g id="edge8" class="edge">
<title>sp08&#45;&gt;sp09</title>
<path fill="none" stroke="#5c9bd5" d="M203,-940.11C203,-932.63 203,-922.86 203,-914.34"/>
<polygon fill="#5c9bd5" stroke="#5c9bd5" points="205.45,-914.27 203,-907.27 200.55,-914.27 205.45,-914.27"/>
</g>
<!-- sp10 -->
<g id="node11" class="node">
<title>sp10</title>
<path fill="#dce8f5" stroke="#5c9bd5" stroke-dasharray="5,2" d="M250,-848.2C250,-848.2 156,-848.2 156,-848.2 150,-848.2 144,-842.2 144,-836.2 144,-836.2 144,-824.2 144,-824.2 144,-818.2 150,-812.2 156,-812.2 156,-812.2 250,-812.2 250,-812.2 256,-812.2 262,-818.2 262,-824.2 262,-824.2 262,-836.2 262,-836.2 262,-842.2 256,-848.2 250,-848.2"/>
<text text-anchor="start" x="172.5" y="-837.2" font-family="Helvetica Neue,Helvetica,Arial,sans-serif" font-weight="bold" font-size="10.00">create&#45;issues</text>
<text text-anchor="start" x="180.5" y="-828.8" font-family="Helvetica Neue,Helvetica,Arial,sans-serif" font-size="8.00" fill="#5c9bd5">style&#45;curator</text>
<text text-anchor="start" x="153" y="-819.2" font-family="Helvetica Neue,Helvetica,Arial,sans-serif" font-size="10.00"> &#160;&#160;&#160;&#160;&#160;&#160;&#160;&#160;&#160;&#160;&#160;&#160;&#160;&#160;&#160;</text>
<text text-anchor="start" x="202" y="-819.2" font-family="Helvetica Neue,Helvetica,Arial,sans-serif" font-size="7.00" fill="#777777">⟳ foreach issue</text>
</g>
<!-- sp09&#45;&gt;sp10 -->
<g id="edge9" class="edge">
<title>sp09&#45;&gt;sp10</title>
<path fill="none" stroke="#5c9bd5" d="M203,-880.95C203,-873.67 203,-864.18 203,-855.45"/>
<polygon fill="#5c9bd5" stroke="#5c9bd5" points="205.45,-855.35 203,-848.35 200.55,-855.35 205.45,-855.35"/>
</g>
<!-- sp10&#45;&gt;sp11 -->
<g id="edge10" class="edge">
<title>sp10&#45;&gt;sp11</title>
<path fill="none" stroke="#5c9bd5" d="M203,-811.94C203,-804.27 203,-795.09 203,-786.72"/>
<polygon fill="#5c9bd5" stroke="#5c9bd5" points="205.45,-786.63 203,-779.63 200.55,-786.63 205.45,-786.63"/>
</g>
<!-- sp_gate -->
<g id="node13" class="node">
<title>sp_gate</title>
<polygon fill="#fff3c4" stroke="#e0a015" stroke-width="1.5" points="294.69,-682.1 294.69,-698.5 240.98,-710.1 165.02,-710.1 111.31,-698.5 111.31,-682.1 165.02,-670.5 240.98,-670.5 294.69,-682.1"/>
<text text-anchor="start" x="160" y="-692.3" font-family="Helvetica Neue,Helvetica,Arial,sans-serif" font-weight="bold" font-size="10.00">APPROVAL GATE</text>
<text text-anchor="start" x="152" y="-683.9" font-family="Helvetica Neue,Helvetica,Arial,sans-serif" font-size="8.00">arc · issues · roster · layouts</text>
</g>
<!-- sp11&#45;&gt;sp_gate -->
<g id="edge11" class="edge">
<title>sp11&#45;&gt;sp_gate</title>
<path fill="none" stroke="#e0a015" stroke-width="1.2" d="M203,-743.17C203,-735.52 203,-726.33 203,-717.82"/>
<polygon fill="#e0a015" stroke="#e0a015" stroke-width="1.2" points="205.45,-717.57 203,-710.57 200.55,-717.57 205.45,-717.57"/>
</g>
<!-- dc01 -->
<g id="node14" class="node">
<title>dc01</title>
<path fill="#dff0d8" stroke="#4a9a3e" d="M240.33,-586.4C240.33,-586.4 165.67,-586.4 165.67,-586.4 161.33,-586.4 157,-582.07 157,-577.73 157,-577.73 157,-569.07 157,-569.07 157,-564.73 161.33,-560.4 165.67,-560.4 165.67,-560.4 240.33,-560.4 240.33,-560.4 244.67,-560.4 249,-564.73 249,-569.07 249,-569.07 249,-577.73 249,-577.73 249,-582.07 244.67,-586.4 240.33,-586.4"/>
<text text-anchor="start" x="166" y="-575.4" font-family="Helvetica Neue,Helvetica,Arial,sans-serif" font-weight="bold" font-size="10.00">load&#45;storyboard</text>
<text text-anchor="start" x="180.5" y="-567" font-family="Helvetica Neue,Helvetica,Arial,sans-serif" font-size="8.00" fill="#4a9a3e">style&#45;curator</text>
</g>
<!-- sp_gate&#45;&gt;dc01 -->
<g id="edge22" class="edge">
<title>sp_gate&#45;&gt;dc01</title>
<path fill="none" stroke="#4a9a3e" stroke-width="1.3" d="M203,-654.4C203,-649 203,-643.27 203,-637.47"/>
<polygon fill="#4a9a3e" stroke="#4a9a3e" stroke-width="1.3" points="205.45,-637.4 203,-630.4 200.55,-637.4 205.45,-637.4"/>
<text text-anchor="start" x="203" y="-640.8" font-family="Helvetica Neue,Helvetica,Arial,sans-serif" font-size="7.00" fill="#777777">project_id &#160;style_uri</text>
</g>
<!-- store -->
<g id="node26" class="node">
<title>store</title>
<path fill="#fff9e0" stroke="#e0a015" d="M528,-1500.75C528,-1502.65 476.9,-1504.2 414,-1504.2 351.1,-1504.2 300,-1502.65 300,-1500.75 300,-1500.75 300,-1469.65 300,-1469.65 300,-1467.74 351.1,-1466.2 414,-1466.2 476.9,-1466.2 528,-1467.74 528,-1469.65 528,-1469.65 528,-1500.75 528,-1500.75"/>
<path fill="none" stroke="#e0a015" d="M528,-1500.75C528,-1498.84 476.9,-1497.29 414,-1497.29 351.1,-1497.29 300,-1498.84 300,-1500.75"/>
<text text-anchor="start" x="368.5" y="-1488.2" font-family="Helvetica Neue,Helvetica,Arial,sans-serif" font-weight="bold" font-size="10.00">comic:// asset store</text>
<text text-anchor="start" x="309" y="-1478.2" font-family="Helvetica Neue,Helvetica,Arial,sans-serif" font-size="10.00"> &#160;&#160;&#160;&#160;&#160;&#160;&#160;&#160;&#160;&#160;</text>
<text text-anchor="start" x="343" y="-1478.2" font-family="Helvetica Neue,Helvetica,Arial,sans-serif" font-size="8.00" fill="#777777">characters · styles · panels · covers · storyboards</text>
</g>
<!-- sp_gate&#45;&gt;store -->
<g id="edge25" class="edge">
<title>sp_gate&#45;&gt;store</title>
<path fill="none" stroke="#cccccc" stroke-dasharray="5,2" d="M235.24,-710.18C247.26,-718.79 259.94,-730.01 268,-743.2 328.45,-842.12 305.32,-883.97 318,-999.2 322.62,-1041.18 321.52,-1051.99 320,-1094.2 314.42,-1249.16 205.44,-1315.61 295,-1442.2 301.58,-1451.5 310.41,-1458.76 320.29,-1464.42"/>
<polygon fill="#cccccc" stroke="#cccccc" points="319.67,-1466.07 324.9,-1466.91 321.33,-1462.99 319.67,-1466.07"/>
</g>
<!-- dc02 -->
<g id="node15" class="node">
<title>dc02</title>
<path fill="#dff0d8" stroke="#4a9a3e" d="M259.33,-527.4C259.33,-527.4 146.67,-527.4 146.67,-527.4 142.33,-527.4 138,-523.07 138,-518.73 138,-518.73 138,-510.07 138,-510.07 138,-505.73 142.33,-501.4 146.67,-501.4 146.67,-501.4 259.33,-501.4 259.33,-501.4 263.67,-501.4 268,-505.73 268,-510.07 268,-510.07 268,-518.73 268,-518.73 268,-523.07 263.67,-527.4 259.33,-527.4"/>
<text text-anchor="start" x="147" y="-516.4" font-family="Helvetica Neue,Helvetica,Arial,sans-serif" font-weight="bold" font-size="10.00">load&#45;existing&#45;characters</text>
<text text-anchor="start" x="180.5" y="-508" font-family="Helvetica Neue,Helvetica,Arial,sans-serif" font-size="8.00" fill="#4a9a3e">style&#45;curator</text>
</g>
<!-- dc01&#45;&gt;dc02 -->
<g id="edge13" class="edge">
<title>dc01&#45;&gt;dc02</title>
<path fill="none" stroke="#4a9a3e" d="M203,-560.31C203,-552.83 203,-543.06 203,-534.54"/>
<polygon fill="#4a9a3e" stroke="#4a9a3e" points="205.45,-534.47 203,-527.47 200.55,-534.47 205.45,-534.47"/>
</g>
<!-- dc03 -->
<g id="node16" class="node">
<title>dc03</title>
<path fill="#dff0d8" stroke="#4a9a3e" stroke-dasharray="5,2" d="M273.5,-468.4C273.5,-468.4 132.5,-468.4 132.5,-468.4 126.5,-468.4 120.5,-462.4 120.5,-456.4 120.5,-456.4 120.5,-444.4 120.5,-444.4 120.5,-438.4 126.5,-432.4 132.5,-432.4 132.5,-432.4 273.5,-432.4 273.5,-432.4 279.5,-432.4 285.5,-438.4 285.5,-444.4 285.5,-444.4 285.5,-456.4 285.5,-456.4 285.5,-462.4 279.5,-468.4 273.5,-468.4"/>
<text text-anchor="start" x="161.5" y="-457.4" font-family="Helvetica Neue,Helvetica,Arial,sans-serif" font-weight="bold" font-size="10.00">design&#45;characters</text>
<text text-anchor="start" x="169" y="-449" font-family="Helvetica Neue,Helvetica,Arial,sans-serif" font-size="8.00" fill="#4a9a3e">character&#45;designer</text>
<text text-anchor="start" x="129.5" y="-439.4" font-family="Helvetica Neue,Helvetica,Arial,sans-serif" font-size="10.00"> &#160;&#160;&#160;&#160;&#160;&#160;&#160;&#160;&#160;&#160;&#160;&#160;&#160;&#160;&#160;</text>
<text text-anchor="start" x="178.5" y="-439.4" font-family="Helvetica Neue,Helvetica,Arial,sans-serif" font-size="7.00" fill="#777777">⟳ foreach character · parallel:2</text>
</g>
<!-- dc02&#45;&gt;dc03 -->
<g id="edge14" class="edge">
<title>dc02&#45;&gt;dc03</title>
<path fill="none" stroke="#4a9a3e" d="M203,-501.15C203,-493.87 203,-484.38 203,-475.65"/>
<polygon fill="#4a9a3e" stroke="#4a9a3e" points="205.45,-475.55 203,-468.55 200.55,-475.55 205.45,-475.55"/>
</g>
<!-- ia_fork -->
<g id="node17" class="node">
<title>ia_fork</title>
<ellipse fill="#d9882a" stroke="#d9882a" cx="203" cy="-344.8" rx="3.6" ry="3.6"/>
</g>
<!-- dc03&#45;&gt;ia_fork -->
<g id="edge23" class="edge">
<title>dc03&#45;&gt;ia_fork</title>
<path fill="none" stroke="#d9882a" stroke-width="1.3" d="M203,-416.4C203,-410.97 203,-405.21 203,-399.42"/>
<polygon fill="#d9882a" stroke="#d9882a" stroke-width="1.3" points="205.45,-399.4 203,-392.4 200.55,-399.4 205.45,-399.4"/>
<text text-anchor="start" x="203" y="-402.8" font-family="Helvetica Neue,Helvetica,Arial,sans-serif" font-size="7.00" fill="#777777">character_uris</text>
</g>
<!-- dc03&#45;&gt;store -->
<g id="edge26" class="edge">
<title>dc03&#45;&gt;store</title>
<path fill="none" stroke="#cccccc" stroke-dasharray="5,2" d="M240.91,-468.58C255.24,-476.73 270.57,-487.71 281,-501.4 321.88,-555.08 280.67,-596.42 326,-646.4 332.16,-653.19 339.76,-646.88 345,-654.4 410.46,-748.36 368,-1054.69 368,-1169.2 368,-1347.2 368,-1347.2 368,-1347.2 368,-1389.57 341.38,-1404.14 360,-1442.2 363.85,-1450.06 369.95,-1456.88 376.7,-1462.6"/>
<polygon fill="#cccccc" stroke="#cccccc" points="375.97,-1464.26 380.97,-1466.02 378.16,-1461.53 375.97,-1464.26"/>
</g>
<!-- ia01 -->
<g id="node18" class="node">
<title>ia01</title>
<path fill="#fae5c8" stroke="#d9882a" stroke-dasharray="5,2" d="M179,-308.2C179,-308.2 51,-308.2 51,-308.2 45,-308.2 39,-302.2 39,-296.2 39,-296.2 39,-284.2 39,-284.2 39,-278.2 45,-272.2 51,-272.2 51,-272.2 179,-272.2 179,-272.2 185,-272.2 191,-278.2 191,-284.2 191,-284.2 191,-296.2 191,-296.2 191,-302.2 185,-308.2 179,-308.2"/>
<text text-anchor="start" x="78" y="-297.2" font-family="Helvetica Neue,Helvetica,Arial,sans-serif" font-weight="bold" font-size="10.00">generate&#45;panels</text>
<text text-anchor="start" x="95" y="-288.8" font-family="Helvetica Neue,Helvetica,Arial,sans-serif" font-size="8.00" fill="#d9882a">panel&#45;artist</text>
<text text-anchor="start" x="48" y="-279.2" font-family="Helvetica Neue,Helvetica,Arial,sans-serif" font-size="10.00"> &#160;&#160;&#160;&#160;&#160;&#160;&#160;&#160;&#160;&#160;&#160;&#160;&#160;&#160;&#160;</text>
<text text-anchor="start" x="97" y="-279.2" font-family="Helvetica Neue,Helvetica,Arial,sans-serif" font-size="7.00" fill="#777777">⟳ foreach panel · parallel:2</text>
</g>
<!-- ia_fork&#45;&gt;ia01 -->
<g id="edge15" class="edge">
<title>ia_fork&#45;&gt;ia01</title>
<path fill="none" stroke="#d9882a" d="M200.07,-342.05C192.18,-337.33 169.72,-323.91 149.86,-312.04"/>
<polygon fill="#d9882a" stroke="#d9882a" points="151.06,-309.9 143.8,-308.41 148.55,-314.11 151.06,-309.9"/>
</g>
<!-- ia02 -->
<g id="node19" class="node">
<title>ia02</title>
<path fill="#fae5c8" stroke="#d9882a" d="M256.83,-256.2C256.83,-256.2 187.17,-256.2 187.17,-256.2 182.83,-256.2 178.5,-251.87 178.5,-247.53 178.5,-247.53 178.5,-238.87 178.5,-238.87 178.5,-234.53 182.83,-230.2 187.17,-230.2 187.17,-230.2 256.83,-230.2 256.83,-230.2 261.17,-230.2 265.5,-234.53 265.5,-238.87 265.5,-238.87 265.5,-247.53 265.5,-247.53 265.5,-251.87 261.17,-256.2 256.83,-256.2"/>
<text text-anchor="start" x="187.5" y="-245.2" font-family="Helvetica Neue,Helvetica,Arial,sans-serif" font-weight="bold" font-size="10.00">generate&#45;cover</text>
<text text-anchor="start" x="202" y="-236.8" font-family="Helvetica Neue,Helvetica,Arial,sans-serif" font-size="8.00" fill="#d9882a">cover&#45;artist</text>
</g>
<!-- ia_fork&#45;&gt;ia02 -->
<g id="edge16" class="edge">
<title>ia_fork&#45;&gt;ia02</title>
<path fill="none" stroke="#d9882a" d="M203.55,-340.93C205.69,-329.71 213.59,-288.28 218.33,-263.42"/>
<polygon fill="#d9882a" stroke="#d9882a" points="220.79,-263.63 219.69,-256.29 215.97,-262.71 220.79,-263.63"/>
</g>
<!-- ia03 -->
<g id="node20" class="node">
<title>ia03</title>
<path fill="#fae5c8" stroke="#d9882a" stroke-dasharray="5,2" d="M185,-214.2C185,-214.2 39,-214.2 39,-214.2 33,-214.2 27,-208.2 27,-202.2 27,-202.2 27,-190.2 27,-190.2 27,-184.2 33,-178.2 39,-178.2 39,-178.2 185,-178.2 185,-178.2 191,-178.2 197,-184.2 197,-190.2 197,-190.2 197,-202.2 197,-202.2 197,-208.2 191,-214.2 185,-214.2"/>
<text text-anchor="start" x="49" y="-203.2" font-family="Helvetica Neue,Helvetica,Arial,sans-serif" font-weight="bold" font-size="10.00">review&#45;panel&#45;compositions</text>
<text text-anchor="start" x="83" y="-194.8" font-family="Helvetica Neue,Helvetica,Arial,sans-serif" font-size="8.00" fill="#d9882a">strip&#45;compositor</text>
<text text-anchor="start" x="36" y="-185.2" font-family="Helvetica Neue,Helvetica,Arial,sans-serif" font-size="10.00"> &#160;&#160;&#160;&#160;&#160;&#160;&#160;&#160;&#160;&#160;&#160;&#160;&#160;&#160;&#160;</text>
<text text-anchor="start" x="85" y="-185.2" font-family="Helvetica Neue,Helvetica,Arial,sans-serif" font-size="7.00" fill="#777777">⟳ foreach panel · vision analysis</text>
</g>
<!-- ia01&#45;&gt;ia03 -->
<g id="edge17" class="edge">
<title>ia01&#45;&gt;ia03</title>
<path fill="none" stroke="#d9882a" d="M114.44,-271.9C113.97,-257.76 113.32,-237.61 112.8,-221.79"/>
<polygon fill="#d9882a" stroke="#d9882a" points="115.24,-221.34 112.56,-214.43 110.34,-221.5 115.24,-221.34"/>
</g>
<!-- ia_join -->
<g id="node21" class="node">
<title>ia_join</title>
<ellipse fill="#d9882a" stroke="#d9882a" cx="172" cy="-141.6" rx="3.6" ry="3.6"/>
</g>
<!-- ia02&#45;&gt;ia_join -->
<g id="edge19" class="edge">
<title>ia02&#45;&gt;ia_join</title>
<path fill="none" stroke="#d9882a" d="M221.94,-230.13C221.39,-216.68 219.02,-194.65 210,-178.2 202.87,-165.19 189.26,-154.23 180.41,-148.04"/>
<polygon fill="#d9882a" stroke="#d9882a" points="181.74,-145.98 174.55,-144.15 179.03,-150.06 181.74,-145.98"/>
</g>
<!-- ia03&#45;&gt;ia_join -->
<g id="edge18" class="edge">
<title>ia03&#45;&gt;ia_join</title>
<path fill="none" stroke="#d9882a" d="M131.65,-177.98C142.75,-168.24 156.02,-156.61 164.23,-149.41"/>
<polygon fill="#d9882a" stroke="#d9882a" points="166.13,-151.01 169.78,-144.55 162.9,-147.32 166.13,-151.01"/>
</g>
<!-- ia04 -->
<g id="node22" class="node">
<title>ia04</title>
<path fill="#fae5c8" stroke="#d9882a" d="M235.5,-105C235.5,-105 108.5,-105 108.5,-105 102.5,-105 96.5,-99 96.5,-93 96.5,-93 96.5,-81 96.5,-81 96.5,-75 102.5,-69 108.5,-69 108.5,-69 235.5,-69 235.5,-69 241.5,-69 247.5,-75 247.5,-81 247.5,-81 247.5,-93 247.5,-93 247.5,-99 241.5,-105 235.5,-105"/>
<text text-anchor="start" x="142.5" y="-94" font-family="Helvetica Neue,Helvetica,Arial,sans-serif" font-weight="bold" font-size="10.00">composition</text>
<text text-anchor="start" x="143" y="-85.6" font-family="Helvetica Neue,Helvetica,Arial,sans-serif" font-size="8.00" fill="#d9882a">strip&#45;compositor</text>
<text text-anchor="start" x="105.5" y="-76" font-family="Helvetica Neue,Helvetica,Arial,sans-serif" font-size="10.00"> &#160;&#160;&#160;&#160;&#160;&#160;&#160;&#160;&#160;&#160;&#160;&#160;&#160;&#160;&#160;</text>
<text text-anchor="start" x="154.5" y="-76" font-family="Helvetica Neue,Helvetica,Arial,sans-serif" font-size="7.00" fill="#777777">assemble_comic → HTML</text>
</g>
<!-- ia_join&#45;&gt;ia04 -->
<g id="edge20" class="edge">
<title>ia_join&#45;&gt;ia04</title>
<path fill="none" stroke="#d9882a" d="M172,-137.77C172,-132.9 172,-122.46 172,-112.39"/>
<polygon fill="#d9882a" stroke="#d9882a" points="174.45,-112.21 172,-105.21 169.55,-112.21 174.45,-112.21"/>
</g>
<!-- output -->
<g id="node23" class="node">
<title>output</title>
<polygon fill="#e8f5e9" stroke="#81c784" points="282.33,-28 57,-28 57,0 287,0 287,-23.33 282.33,-28"/>
<polyline fill="none" stroke="#81c784" points="282.33,-28 282.33,-23.33 "/>
<polyline fill="none" stroke="#81c784" points="287,-23.33 282.33,-23.33 "/>
<text text-anchor="start" x="90.5" y="-17" font-family="Helvetica Neue,Helvetica,Arial,sans-serif" font-weight="bold" font-size="10.00">issue&#45;001.html &#160;&#160;issue&#45;002.html &#160;&#160;...</text>
<text text-anchor="start" x="100.5" y="-7" font-family="Helvetica Neue,Helvetica,Arial,sans-serif" font-size="10.00"> &#160;&#160;&#160;&#160;&#160;&#160;&#160;&#160;&#160;&#160;</text>
<text text-anchor="start" x="134.5" y="-7" font-family="Helvetica Neue,Helvetica,Arial,sans-serif" font-size="8.00" fill="#777777">self&#45;contained HTML per issue</text>
</g>
<!-- ia04&#45;&gt;output -->
<g id="edge24" class="edge">
<title>ia04&#45;&gt;output</title>
<path fill="none" stroke="#81c784" stroke-width="1.3" d="M172,-53C172,-47.03 172,-40.97 172,-35.48"/>
<polygon fill="#81c784" stroke="#81c784" stroke-width="1.3" points="174.45,-35.25 172,-28.25 169.55,-35.25 174.45,-35.25"/>
</g>
<!-- ia04&#45;&gt;store -->
<g id="edge27" class="edge">
<title>ia04&#45;&gt;store</title>
<path fill="none" stroke="#cccccc" stroke-dasharray="5,2" d="M185.17,-105.26C204.68,-131.34 241.68,-182.8 267,-230.2 309.19,-309.19 319.81,-330.18 344,-416.4 457.6,-821.39 425.01,-1345.23 415.96,-1460.93"/>
<polygon fill="#cccccc" stroke="#cccccc" points="414.2,-1461 415.55,-1466.12 417.69,-1461.28 414.2,-1461"/>
</g>
<!-- re01 -->
<g id="node24" class="node">
<title>re01</title>
<path fill="#ede5f5" stroke="#9070c0" d="M956.5,-1504.2C956.5,-1504.2 807.5,-1504.2 807.5,-1504.2 801.5,-1504.2 795.5,-1498.2 795.5,-1492.2 795.5,-1492.2 795.5,-1478.2 795.5,-1478.2 795.5,-1472.2 801.5,-1466.2 807.5,-1466.2 807.5,-1466.2 956.5,-1466.2 956.5,-1466.2 962.5,-1466.2 968.5,-1472.2 968.5,-1478.2 968.5,-1478.2 968.5,-1492.2 968.5,-1492.2 968.5,-1498.2 962.5,-1504.2 956.5,-1504.2"/>
<text text-anchor="start" x="833.5" y="-1493.2" font-family="Helvetica Neue,Helvetica,Arial,sans-serif" font-weight="bold" font-size="10.00">issue&#45;compose.yaml</text>
<text text-anchor="start" x="810" y="-1483.2" font-family="Helvetica Neue,Helvetica,Arial,sans-serif" font-size="10.00"> &#160;&#160;&#160;&#160;&#160;&#160;&#160;&#160;&#160;&#160;&#160;&#160;&#160;&#160;&#160;</text>
<text text-anchor="start" x="859" y="-1483.2" font-family="Helvetica Neue,Helvetica,Arial,sans-serif" font-size="8.00" fill="#9070c0">load assets → composition</text>
<text text-anchor="start" x="804.5" y="-1473.2" font-family="Helvetica Neue,Helvetica,Arial,sans-serif" font-size="10.00"> &#160;&#160;&#160;&#160;&#160;&#160;&#160;&#160;&#160;&#160;&#160;&#160;&#160;&#160;&#160;</text>
<text text-anchor="start" x="853.5" y="-1473.2" font-family="Helvetica Neue,Helvetica,Arial,sans-serif" font-size="7.00" fill="#777777">zero image gen · reassembly only</text>
</g>
<!-- re01&#45;&gt;store -->
<g id="edge28" class="edge">
<title>re01&#45;&gt;store</title>
<path fill="none" stroke="#9070c0" stroke-dasharray="5,2" d="M860.39,-1504.32C839.19,-1521.7 805.09,-1546.12 770.5,-1556.2 748.95,-1562.48 590.43,-1561 568.5,-1556.2 525.21,-1546.73 479.56,-1523.95 449.21,-1506.73"/>
<polygon fill="#9070c0" stroke="#9070c0" points="450.05,-1505.2 444.85,-1504.23 448.32,-1508.23 450.05,-1505.2"/>
</g>
<!-- re02 -->
<g id="node25" class="node">
<title>re02</title>
<path fill="#ede5f5" stroke="#9070c0" d="M758,-1504.2C758,-1504.2 590,-1504.2 590,-1504.2 584,-1504.2 578,-1498.2 578,-1492.2 578,-1492.2 578,-1478.2 578,-1478.2 578,-1472.2 584,-1466.2 590,-1466.2 590,-1466.2 758,-1466.2 758,-1466.2 764,-1466.2 770,-1472.2 770,-1478.2 770,-1478.2 770,-1492.2 770,-1492.2 770,-1498.2 764,-1504.2 758,-1504.2"/>
<text text-anchor="start" x="637" y="-1493.2" font-family="Helvetica Neue,Helvetica,Arial,sans-serif" font-weight="bold" font-size="10.00">issue&#45;retry.yaml</text>
<text text-anchor="start" x="587" y="-1483.2" font-family="Helvetica Neue,Helvetica,Arial,sans-serif" font-size="10.00"> &#160;&#160;&#160;&#160;&#160;&#160;&#160;&#160;&#160;&#160;&#160;&#160;&#160;&#160;&#160;</text>
<text text-anchor="start" x="636" y="-1483.2" font-family="Helvetica Neue,Helvetica,Arial,sans-serif" font-size="8.00" fill="#9070c0">load → panels + cover → compose</text>
<text text-anchor="start" x="596.5" y="-1473.2" font-family="Helvetica Neue,Helvetica,Arial,sans-serif" font-size="10.00"> &#160;&#160;&#160;&#160;&#160;&#160;&#160;&#160;&#160;&#160;&#160;&#160;&#160;&#160;&#160;</text>
<text text-anchor="start" x="645.5" y="-1473.2" font-family="Helvetica Neue,Helvetica,Arial,sans-serif" font-size="7.00" fill="#777777">surgical single&#45;issue re&#45;generation</text>
</g>
<!-- re02&#45;&gt;store -->
<g id="edge29" class="edge">
<title>re02&#45;&gt;store</title>
<path fill="none" stroke="#9070c0" stroke-dasharray="5,2" d="M577.9,-1485.2C562.96,-1485.2 548.02,-1485.2 533.07,-1485.2"/>
<polygon fill="#9070c0" stroke="#9070c0" points="533,-1483.45 528,-1485.2 533,-1486.95 533,-1483.45"/>
</g>
</g>
</svg>
